<?xml version="1.0" encoding="UTF-8"?>
<svg id="Layer_1" data-name="Layer 1" xmlns="http://www.w3.org/2000/svg" viewBox="0 0 384 251.76">
  <defs>
    <style>
      .cls-1 {
        fill: #fff;
      }
    </style>
  </defs>
  <path class="cls-1" d="M0,237.6v-91.5c2.77-7.03,7.95-13.75,16.52-13.75l85.45-.05c9.72,0,17.48,7.88,17.48,17.57v83.96c.01,9.82-7.59,17.86-17.49,17.85l-85.36-.05c-8.6,0-14.06-6.8-16.59-14.03ZM102.23,240.46c3.78-.6,5.97-3.11,5.97-6.67v-83.9c0-3.42-2.74-6.36-6.24-6.36l-83.92-.02c-3.71,0-6.79,2.53-6.79,6.39v83.9c0,3.98,2.88,6.66,6.79,6.66h84.19Z"/>
  <path class="cls-1" d="M384,146.22v91.38c-2.75,8.63-9.26,14.16-18.77,14.16l-82.45-.04c-10.23,0-18.2-7.59-18.22-17.87l-.03-11.26c0-3.63,2.37-6.18,5.85-6.11,2.56.05,5.36,2.26,5.38,5.49l.07,11.97c.02,3.38,2.53,6.52,6.26,6.52l83.86.02c3.88,0,6.8-2.72,6.8-6.66v-83.9c-.01-3.86-3.09-6.39-6.8-6.39l-83.92.02c-3.5,0-6.21,2.97-6.22,6.3l-.03,47.98c0,3.36-2.72,5.69-5.43,5.76-3.11.07-5.82-2.31-5.82-5.73l.03-48.01c0-9.61,7.72-17.54,17.47-17.54l85.44.06c8.61,0,13.84,6.77,16.53,13.87Z"/>
  <path class="cls-1" d="M251.75,233.5c0,10.32-7.73,18.2-17.78,18.2h-83.96c-10.01,0-17.76-7.95-17.76-17.88l.02-83.93c0-9.88,7.93-17.62,17.76-17.62h83.93c9.89,0,17.76,7.79,17.76,17.68l.03,83.55ZM240.5,233.41v-83.36c-.01-3.66-2.82-6.53-6.54-6.53h-83.93c-3.72,0-6.53,2.87-6.53,6.53v83.71c0,3.8,2.8,6.69,6.59,6.69h83.8c3.85,0,6.61-2.83,6.61-7.04Z"/>
  <path class="cls-1" d="M150.04,108.18h83.93c3.71,0,6.53-2.89,6.53-6.54V17.93c0-3.83-2.8-6.68-6.58-6.68h-83.81c-3.81,0-6.56,2.9-6.57,6.59l-.03,11.27c0,3.37-2.03,5.8-5.16,6.07-2.86.25-6.06-1.96-6.06-5.49v-11.9C132.26,7.98,139.99,0,150.01,0l84.71.06c9.71,0,17.03,8.37,17.03,17.79l-.02,83.89c0,9.87-7.89,17.68-17.77,17.69h-83.93c-9.89,0-17.75-7.85-17.76-17.65l-.03-47.91c0-3.33,2.73-5.69,5.39-5.75,3.17-.07,5.85,2.23,5.85,5.71l.03,47.85c0,3.58,2.78,6.5,6.52,6.5Z"/>
  <path class="cls-1" d="M197.6,83.59c-.01,3.22-2.42,5.57-5.24,5.73-3.24.18-5.94-2.24-5.96-5.73l-.15-33.88-8.46,8.02c-2.17,2.06-5.56,2.1-7.79-.08-1.88-1.84-2.41-5.5-.04-7.87l17.97-17.98c2.27-2.27,5.85-2.27,8.12,0l17.62,17.58c2.35,2.35,2.48,5.72.68,7.86-2.37,2.82-6.07,2.53-8.58.13l-8.04-7.65-.14,33.88Z"/>
  <path class="cls-1" d="M326.47,205.94l7.7-8.15-34.06-.23c-3.18-.02-5.39-2.7-5.46-5.37-.08-2.88,2.01-5.73,5.32-5.75l34.34-.2-7.8-8.15c-2.17-2.27-2.38-5.63-.46-7.81s5.74-2.74,8.03-.46l18,17.95c2.33,2.33,2.47,5.96.12,8.3l-18.03,18c-2.17,2.16-5.7,1.79-7.53.18-2.5-2.19-2.55-5.78-.15-8.32Z"/>
  <path class="cls-1" d="M49.98,197.7c2.68,4.99,13.5,10.01,7.8,16.16-1.83,1.97-5.56,2.58-7.94.2l-18.02-17.98c-2.38-2.38-2.22-5.95.12-8.29l17.6-17.61c2.29-2.29,5.74-2.4,8.09-.22,1.95,1.81,2.33,5.49.19,7.75l-8.14,8.58,33.6.12c3.33.01,5.78,2,6.05,5.07s-1.96,5.95-5.44,6.11l-33.91.13Z"/>
  <path class="cls-1" d="M196.27,219.72c-2.47,2.47-6.05,2.5-8.35.19l-18.32-18.39c-2.16-2.16-1.15-5.97.36-7.44,2.29-2.22,5.65-2.17,7.83-.1l8.46,8.01.14-33.89c.01-3.21,2.4-5.57,5.24-5.72,3.23-.18,5.94,2.24,5.95,5.73l.15,33.89,8.46-8.02c2.16-2.05,5.56-2.11,7.79.07,1.87,1.83,2.4,5.5.04,7.87l-17.76,17.79Z"/>
</svg>